<?xml version="1.0" encoding="utf-8"?>
<!-- Generator: Adobe Illustrator 15.0.0, SVG Export Plug-In . SVG Version: 6.00 Build 0)  -->
<!DOCTYPE svg PUBLIC "-//W3C//DTD SVG 1.1//EN" "http://www.w3.org/Graphics/SVG/1.1/DTD/svg11.dtd">
<svg version="1.1" id="Layer_1" xmlns="http://www.w3.org/2000/svg" xmlns:xlink="http://www.w3.org/1999/xlink" x="0px" y="0px"
	 width="150px" height="31.101px" viewBox="0 0 150 31.101" enable-background="new 0 0 150 31.101" xml:space="preserve">
<g>
	<path d="M0,0h3.926v9.489c0.956-0.75,2.423-1.331,4.062-1.331c4.573,0,7.304,3.277,7.304,7.816c0,5.052-3.379,8.294-8.772,8.294
		c-2.526,0-5.121-0.819-6.52-1.706V0z M3.926,13.312v6.519c0.853,0.546,1.707,0.785,2.798,0.785c2.458,0,4.369-1.604,4.369-4.369
		c0-2.936-1.809-4.403-4.027-4.403C5.7,11.845,4.574,12.562,3.926,13.312"/>
	<path d="M21.331,0.717c1.127,0,2.253,0.887,2.253,2.287c0,1.57-1.126,2.458-2.253,2.458c-1.331,0-2.457-0.887-2.457-2.458
		C18.874,1.604,20,0.717,21.331,0.717 M19.283,8.533h3.926v15.36h-3.926V8.533z"/>
	<path d="M34.403,30.993c-3.721,0-5.836-1.604-6.587-2.185l1.911-3.038c0.888,0.649,2.765,1.57,4.95,1.57
		c2.458,0,3.618-1.127,3.618-3.277v-0.956c-1.161,0.751-2.56,1.161-3.789,1.161c-4.915,0-7.987-3.209-7.987-8.055
		c0-4.472,3.618-8.056,8.806-8.056c2.628,0,5.257,0.819,6.896,1.843v13.654C42.22,28.945,38.738,30.993,34.403,30.993
		 M38.294,19.217v-6.622c-0.921-0.444-1.912-0.751-3.004-0.751c-3.003,0-4.573,2.116-4.573,4.54c0,2.423,1.672,4.232,4.3,4.232
		C36.247,20.616,37.543,20.036,38.294,19.217"/>
	<path d="M69.866,23.894H65.94v-9.012c0-1.911-0.785-2.935-2.628-2.935c-1.467,0-2.628,0.717-3.174,1.775
		c0,0.239,0.034,0.785,0.034,1.126v9.045h-3.925V14.61c0-1.605-0.888-2.663-2.56-2.663c-1.399,0-2.526,0.615-3.208,1.639v10.308
		h-3.925V8.533h3.925v1.707c1.092-1.229,2.901-1.98,4.812-1.98c2.355,0,3.926,1.058,4.471,2.458
		c1.093-1.434,2.799-2.458,5.188-2.458c2.799,0,4.916,1.4,4.916,5.598V23.894z"/>
	<path d="M76.484,0.717c1.126,0,2.252,0.887,2.252,2.287c0,1.57-1.126,2.458-2.252,2.458c-1.331,0-2.458-0.887-2.458-2.458
		C74.027,1.604,75.153,0.717,76.484,0.717 M74.437,8.533h3.925v15.36h-3.925V8.533z"/>
	<path d="M83.31,8.533h3.925v1.502c0.717-0.99,1.672-1.775,3.515-1.775c1.263,0,1.878,0.205,2.39,0.581l-1.399,3.686
		c-0.751-0.443-1.161-0.58-1.98-0.58c-1.365,0-2.082,0.751-2.525,1.639v10.308H83.31V8.533z"/>
	<path fill="#C82127" d="M93.208,28.774c3.208-2.969,5.461-7.543,5.461-12.56c0-5.018-1.707-8.875-5.427-12.562l2.424-2.15
		c5.222,4.71,6.929,9.694,6.929,14.712c0,5.017-1.707,10.24-6.895,14.711L93.208,28.774z"/>
	<path d="M106.142,8.533h3.926v1.536c0.921-0.99,2.56-1.809,4.403-1.809c3.754,0,6.315,1.809,6.315,6.622v9.012h-3.925v-8.329
		c0-2.458-1.263-3.618-3.448-3.618c-1.331,0-2.423,0.546-3.344,1.468v10.479h-3.926V8.533z"/>
	<path d="M136.587,22.357c-1.536,1.298-3.721,1.912-5.871,1.912c-4.95,0-8.261-3.208-8.261-8.055c0-4.472,3.072-8.055,8.124-8.055
		c3.959,0,7.271,2.833,7.271,7.133c0,0.956-0.068,1.536-0.239,2.117h-11.093c0.341,2.321,2.185,3.584,4.608,3.584
		c1.877,0,3.447-0.683,4.334-1.4L136.587,22.357z M126.381,14.78h7.543c0.034-1.878-1.263-3.346-3.516-3.346
		C128.054,11.435,126.791,12.766,126.381,14.78"/>
	<path d="M140.682,4.267h3.925v4.267h4.95v3.687h-4.95v5.597c0,1.673,0.546,2.765,1.843,2.765c1.058,0,1.809-0.478,2.355-0.887
		L150,22.733c-0.922,0.75-2.561,1.501-4.54,1.501c-3.482,0-4.778-2.252-4.778-6.178V4.267z"/>
</g>
</svg>
